<svg xmlns="http://www.w3.org/2000/svg" width="209" height="52" viewBox="0 0 209 52"><g fill="#001034" opacity=".6"><path d="M89.157 37.092h3.946c.224 2.084 1.891 3.27 4.329 3.27a4.048 4.048 0 0 0 4.359-4.329V33.34a6.158 6.158 0 0 1-5.291 2.467c-4.456 0-7.438-3.334-7.438-7.953 0-4.65 3.047-8.08 7.566-8.08a5.921 5.921 0 0 1 5.293 2.661l.225-2.148h3.464v15.041c0 5.227-3.272 8.593-8.4 8.593-4.364.001-7.539-2.691-8.053-6.829Zm3.883-9.332c0 2.661 1.7 4.65 4.137 4.65a4.4 4.4 0 0 0 4.488-4.65 4.344 4.344 0 0 0-4.488-4.555c-2.47 0-4.137 1.925-4.137 4.555Zm40.607 15.745V20.318h3.528l.223 2.406a6.115 6.115 0 0 1 5.55-2.887c4.488 0 7.344 3.241 7.439 8.21.063 4.94-2.726 8.529-7.407 8.529a6.353 6.353 0 0 1-5.518-2.6v9.526Zm3.978-15.267c0 2.855 1.73 4.812 4.456 4.812s4.363-1.989 4.363-4.812-1.638-4.842-4.363-4.842-4.456 1.989-4.456 4.842Zm-72.671 8.771V13.152h3.915v23.857Zm61.353-.008V21.16h3.913v15.841Zm25.072-5.185h3.561c0 1.38.993 2.18 2.724 2.18 1.444 0 2.633-.577 2.633-1.826 0-.9-.643-1.38-1.67-1.667l-2.757-.707c-3.046-.8-4.232-2.5-4.232-4.555 0-3.012 2.533-5 5.932-5 3.434 0 5.772 1.989 5.9 5.131h-3.56a2.17 2.17 0 0 0-2.438-2.212c-1.412 0-2.276.768-2.276 1.858 0 1.026.8 1.444 1.986 1.763l2.792.675c2.6.641 4.007 2.18 4.007 4.456 0 3.079-2.531 5.068-6.254 5.068-3.781 0-6.218-2.02-6.348-5.163Zm14.916-1.207V20.7h3.913v8.529c0 3.271 1.378 4.233 3.366 4.233 2.565 0 3.655-1.6 3.655-4.456V20.7h3.912v15.841h-3.655l-.257-2.053a6.146 6.146 0 0 1-5.131 2.47c-3.751.001-5.799-2.565-5.799-6.348Zm-58.749-2c0-4.874 3.271-8.338 8.242-8.338s8.242 3.464 8.242 8.338-3.272 8.338-8.242 8.338-8.242-3.463-8.242-8.336Zm3.943 0c0 2.821 1.7 4.841 4.3 4.841s4.3-2.021 4.3-4.841c0-2.853-1.7-4.842-4.3-4.842s-4.299 1.991-4.299 4.844Zm-40.228 0c0-4.874 3.273-8.338 8.241-8.338s8.243 3.464 8.243 8.338-3.27 8.338-8.243 8.338-8.24-3.463-8.24-8.336Zm3.945 0c0 2.821 1.7 4.841 4.3 4.841s4.3-2.021 4.3-4.841c0-2.853-1.7-4.842-4.3-4.842s-4.299 1.991-4.299 4.844Zm130.007 7.974v-9.46c0-2.247-1.218-3.432-3.111-3.432-1.858 0-3.334 1.22-3.334 3.815v9.077h-3.815v-9.46c0-2.247-1.22-3.432-3.079-3.432s-3.37 1.22-3.37 3.783v9.109h-3.91V20.739h3.592l.191 1.8a5.284 5.284 0 0 1 4.458-2.276 5.316 5.316 0 0 1 5.228 3.012 5.2 5.2 0 0 1 5.064-3.012c3.851 0 5.871 2.308 5.871 5.963v10.359Zm-79.262-21a2.282 2.282 0 0 1 2.312-2.308 2.326 2.326 0 0 1 2.339 2.308 2.333 2.333 0 0 1-2.339 2.342 2.29 2.29 0 0 1-2.311-2.345Z" data-name="Path 6810"/><path fill-rule="evenodd" d="M0 26.566v-.261l.006-.261.008-.261.011-.261.014-.261.02-.261.02-.261.023-.261.026-.26.029-.26.031-.26.034-.26.037-.26.04-.259.043-.259.046-.259.049-.259.051-.258.054-.258.057-.258.06-.257.063-.257.066-.256.069-.256.071-.255.072-.252.077-.254.08-.253.083-.253.086-.252.088-.251.091-.251.094-.25.1-.249.1-.248.1-.248.101-.247.108-.246.111-.245.113-.244.116-.243.119-.242.121-.241.124-.24.127-.239.129-.238.132-.237.135-.236.137-.235.14-.234.143-.232.145-.227.148-.23.151-.229.153-.227.156-.226.158-.225.161-.223.163-.222.166-.221.168-.219.171-.218.173-.216.176-.215.178-.213.18-.212.183-.21.185-.208.188-.207.19-.205.192-.2.195-.2.2-.2.2-.2.2-.2.2-.195.206-.193.208-.191.21-.19.212-.188.215-.186.217-.184.219-.182.221-.18.227-.185.225-.176.227-.174.229-.172.231-.17.233-.168.235-.166.237-.164.239-.162.241-.16.242-.158.244-.155.246-.153.248-.151.25-.149.251-.147.253-.144.255-.142.256-.14.258-.138.26-.135.261-.133.263-.131.264-.128.266-.126.267-.124.269-.121.27-.119.271-.116.273-.114.274-.111.276-.109.277-.106.278-.1.279-.1.281-.1.282-.1.283-.094.284-.091.285-.089.286-.086.287-.084.288-.081.289-.078.29-.076.291-.073.292-.071.293-.068.294-.065.295-.063.3-.06.3-.057.3-.055.3-.052.3-.049.3-.046.3-.044.3-.041.3-.038.3-.036.3-.033.3-.03.3-.027.3-.025.3-.022.3-.019L29.479 0l.093 7.343h.731l.226.006.226.008.226.01.226.012.226.014.226.016.226.018.226.02.226.023.225.025.225.027.225.029.225.031.225.033.225.035.224.037.224.039.224.041.223.043.223.045.223.047.222.049.222.052.221.054.221.056.22.058.22.06.219.062.219.064.218.066.218.068.217.07.216.072.216.074.215.076.214.078.213.08.212.082.212.084.211.086.21.088.209.09.208.092.207.094.206.1.206.1.2.1.2.1.2.1.2.105.2.107.2.109.2.111.2.113.2.115.195.117.194.118.192.12.191.122.19.124.189.126.187.127.186.129.185.131.183.133.182.135.181.136.179.138.178.14.176.141.175.143.173.145.172.146.17.148.169.15.167.151.166.153.164.154.162.156.161.158.159.159.158.161.156.162.154.164.152.165.151.167.149.168.147.17.145.171.143.172.142.174.14.175.138.177.136.178.134.179.132.18.13.182.128.183.126.184.124.186.123.187.12.188.119.189.116.19.114.192.112.193.11.194.108.195.106.2.1.2.1.2.1.2.1.2.1.2.093.2.091.2.089.2.087.205.084.206.082.207.08.207.078.209.076.209.073.21.071.211.069.212.066.212.064.213.062.214.06.214.057.215.055.216.052.216.05.217.048.217.045.218.043.218.041.219.038.219.036.22.033.22.031.221.029.221.026.221.024.222.021.222.019.222.016.223.014.223.012.223.009.223.007.223v.896l-.006.224-.008.224-.011.224-.013.224-.016.224-.018.224-.021.224-.023.224-.025.224-.028.224-.03.224-.033.223-.035.223-.038.223-.04.223-.043.223-.045.222-.048.222-.05.222-.053.221-.055.221-.057.22-.06.22-.062.22-.065.219-.067.219-.07.218-.072.218-.075.217-.077.217-.079.216-.082.215-.084.215-.087.214-.089.213-.091.213-.094.212-.1.211-.1.21-.1.209-.1.209-.106.208-.108.207-.11.206-.113.205-.115.2-.117.2-.12.2-.122.2-.124.2-.126.2-.129.2-.131.2-.133.2-.135.195-.137.194-.14.192-.142.191-.144.19-.146.189-.148.188-.15.186-.153.185-.155.184-.157.182-.159.181-.161.18-.163.178-.165.177-.167.175-.169.174-.171.173-.173.171-.175.17-.177.168-.179.166-.181.165-.183.163-.184.162-.186.16-.188.158-.19.157-.192.155-.194.154-.2.152-.2.15-.2.148-.2.147-.2.145-.2.143-.206.141-.207.139-.209.137-.211.136-.212.134-.214.132-.215.13-.217.128-.218.126-.22.124-.221.122-.223.12-.224.118-.226.116-.227.114-.228.112-.229.11-.231.108-.232.106-.233.1-.235.1-.236.1-.237.1-.238.1-.239.093-.241.091-.242.089-.243.087-.244.085-.245.083-.246.08-.247.078-.248.076-.249.074-.25.071-.251.069-.251.067-.252.065-.253.063-.254.06-.255.058-.255.056-.256.053-.257.051-.258.049-.258.046-.259.044-.259.041-.26.039-.26.037-.261.034-.261.032-.262.03-.263.027-.263.025-.263.023-.264.02-.264.018-.264.015-.265.013-.265.011-.265.008-.249.013H26.649l-.266-.006-.266-.009-.266-.011-.266-.014-.266-.016-.266-.019-.266-.021-.266-.024-.265-.026-.265-.028-.265-.031-.265-.033-.264-.036-.264-.038-.264-.041-.264-.043-.263-.045-.263-.048-.263-.05-.262-.053-.262-.055-.261-.057-.261-.06-.26-.062-.259-.065-.259-.067-.258-.07-.258-.072-.257-.074-.256-.077-.255-.079-.255-.082L18 50.5l-.253-.086-.252-.089-.251-.091-.25-.093-.25-.1-.249-.1-.248-.1-.247-.1-.246-.1-.245-.107-.243-.109-.242-.112-.241-.114-.24-.116-.239-.118-.238-.121-.236-.123-.235-.125-.234-.127-.233-.129-.231-.132-.23-.134-.229-.136-.227-.138-.226-.14-.224-.142-.223-.144-.221-.147-.22-.149-.218-.151-.217-.153-.215-.155-.214-.157-.212-.159-.21-.161-.209-.163-.207-.165-.205-.167-.2-.169-.2-.171-.2-.173-.2-.175-.2-.176-.19-.178-.192-.18-.191-.182-.189-.184-.187-.186-.185-.187-.184-.186-.181-.191-.179-.193-.177-.194-.175-.2-.172-.2-.17-.2-.168-.2-.166-.2-.164-.2-.162-.206-.158-.21-.159-.206-.155-.21-.153-.212-.151-.213-.148-.215-.146-.216-.144-.218-.144-.222-.139-.221-.137-.222-.134-.223-.129-.228-.129-.226L3 38.251l-.125-.228-.122-.23-.12-.231-.117-.232-.11-.23-.112-.234-.11-.235-.107-.237-.1-.238-.1-.239-.1-.24-.1-.241-.094-.242-.092-.243-.091-.245-.086-.245-.084-.245-.081-.246-.078-.247L1 33.475l-.073-.249-.07-.249-.067-.25-.065-.251-.062-.252-.063-.252-.057-.253-.054-.253-.051-.254-.048-.255-.046-.257-.044-.254-.04-.256-.037-.257-.034-.257-.031-.258-.029-.258L.1 28.9l-.023-.259-.02-.259-.017-.259-.014-.259-.012-.26-.009-.26L0 27.087v-.26ZM27.019 7.5l-.064-5.005-.06.005-.277.028-.276.03-.276.033-.275.035-.275.038-.275.04-.274.042-.274.045-.272.047-.273.05-.271.052-.271.055-.27.057-.269.06-.268.062-.267.065-.267.067-.265.066-.265.072-.264.074-.263.076-.262.079-.261.081-.26.084-.259.086-.258.088-.258.088-.256.093-.254.1-.253.1-.252.1-.251.1-.25.1-.248.106-.247.108-.246.111-.244.113-.243.115-.242.117-.24.119-.239.121-.238.124-.236.126-.234.128-.233.13-.231.132-.229.134-.228.136-.227.138-.225.14-.223.142-.222.144-.22.146-.218.148-.221.152-.215.152-.213.154-.211.156-.209.157-.207.159-.206.161-.2.163-.2.164-.2.166-.2.168-.2.17-.194.171-.192.173-.19.175-.188.176-.186.178-.184.18-.182.181-.18.183-.178.184-.175.186-.174.188-.171.189-.169.19-.167.192-.165.193-.163.195-.16.2-.158.2-.156.2-.153.2-.151.2-.149.2-.147.2-.144.205-.142.206-.14.207-.137.209-.135.21-.133.211-.13.212-.128.213-.125.214-.123.215-.121.216-.118.217-.116.218-.113.219-.111.22-.108.221-.106.222-.1.223-.1.223-.1.224-.1.225-.093.226-.084.227-.088.227-.086.228-.083.229-.081.229-.078.23-.075.23-.073.231-.07.231-.068.232-.065.232-.063.233-.06.233-.057.234-.055.234-.052.235-.046.236-.047.235-.044.236-.042.236-.039.236-.036.236-.034.237-.031.237-.027.233-.026.237-.023.237-.021.237-.018.237-.016.237-.013.237-.01.237-.008.237-.005.237v.711l.005.237.008.237.011.236L2.6 28l.016.236.018.236.021.235.023.235.026.235.029.234.031.234.034.233.036.233.039.233.041.232.044.232.042.227.049.23.051.23.054.229.056.229.059.228.061.228.064.227.066.226.069.225.071.225.074.224.076.223.078.222.081.221.083.22.086.22.088.219.09.218.093.217.095.216.1.215.1.214.1.213.1.212.106.211.109.21.111.209.113.207.115.206.118.205.12.2.122.2.124.2.126.2.128.2.13.2.133.2.135.2.137.194.139.192.141.191.143.19.145.188.147.187.149.185.151.184.153.182.155.181.157.179.158.178.16.176.162.175.164.173.166.172.168.17.169.168.171.167.173.165.175.163.176.162.178.16.18.158.181.157.183.155.184.153.186.151.188.15.189.148.19.146.192.144.194.142.2.14.2.139.2.137.2.135.2.133.2.131.2.129.2.127.206.125.207.123.208.121.21.119.211.117.212.115.213.113.214.111.215.109.217.107.217.105.218.1.22.1.221.1.221.1.222.095.223.093.224.091.225.089.226.087.227.084.228.082.228.08.229.078.23.076.231.074.231.072.232.069.232.067.233.065.234.063.234.061.235.059.235.056.236.054.236.052.237.05.237.048.237.046.238.043.238.041.238.039.239.037.239.034.239.032.24.03.24.028.24.026.24.023.24.021.24.019.24.017.24.015.24.012.24.01.24.008.24.006h.96l.24-.005.239-.007.239-.009.239-.012.239-.014.243-.021.238-.018.238-.02.237-.023.237-.025.236-.027.236-.029.236-.031.235-.033.235-.035.234-.038.234-.04.233-.042.232-.044.232-.046.231-.048.23-.05.23-.052.229-.054.228-.056.228-.058.227-.06.226-.063.225-.064.224-.066.224-.069.223-.07.222-.073.221-.075.22-.076.219-.077.218-.08.217-.082.216-.084.215-.086.214-.088.212-.09.212-.092.21-.094.209-.1.208-.1.207-.1.206-.1.2-.1.2-.1.2-.107.2-.108.2-.11.2-.112.2-.114.2-.115.194-.117.193-.119.191-.121.189-.122.188-.124.187-.125.185-.127.184-.129.182-.13.181-.132.179-.133.177-.135.176-.137.174-.138.172-.139.171-.141.169-.142.168-.144.166-.145.164-.147.163-.148.161-.15.159-.151.157-.153.155-.154.154-.155.152-.157.15-.158.148-.159.146-.16.145-.162.143-.163.141-.164.139-.165.137-.166.135-.168.133-.168.131-.17.13-.171.127-.172.126-.173.123-.174.122-.175.12-.176.117-.177.115-.178.114-.179.111-.18.109-.181.107-.182.105-.182.1-.184.1-.184.1-.184.1-.186.095-.187.093-.187.091-.188.089-.189.086-.189.084-.19.082-.191.08-.191.078-.192.076-.192.074-.193.071-.194.069-.194.067-.194.065-.2.062-.2.06-.2.058-.2.056-.2.054-.2.052-.2.049-.2.047-.2.045-.2.043-.2.041-.2.038-.2.036-.2.034-.2.032-.2.03-.2.027-.2.025-.2.023-.2.021-.2.018-.2.016-.2.014-.2.012-.2.009-.2.007-.2.005-.2v-.8l-.006-.2-.008-.2-.01-.2-.013-.2-.015-.2-.017-.2-.019-.2-.021-.2-.023-.2-.026-.2-.028-.2-.03-.2-.032-.2-.034-.2-.036-.2-.038-.2-.041-.2-.044-.149-.045-.194-.047-.193-.049-.193-.051-.192-.053-.192-.055-.191-.057-.19-.059-.19-.066-.185-.063-.188-.066-.188-.067-.187-.07-.187-.071-.185-.074-.185-.075-.184-.078-.183-.079-.182-.081-.181-.083-.18-.086-.18-.087-.178-.089-.178-.091-.177-.093-.176-.095-.175-.1-.174-.1-.173-.1-.172-.1-.171-.1-.17-.106-.169-.108-.168-.109-.166-.111-.166-.113-.164-.115-.164-.116-.162-.116-.167-.12-.16-.121-.159-.123-.158-.125-.156-.126-.155-.128-.154-.13-.153-.131-.151-.133-.15-.134-.149-.136-.147-.137-.146-.139-.145-.14-.143-.142-.142-.143-.14-.145-.139-.146-.137-.148-.136-.149-.135-.151-.134-.151-.132-.153-.131-.155-.129-.152-.119-.157-.126-.159-.125-.16-.123-.161-.121-.162-.12-.163-.118-.164-.116-.174-.119-.167-.113-.168-.112-.165-.107-.17-.109-.172-.107-.172-.105-.174-.1-.174-.1-.176-.1-.176-.1-.177-.1-.178-.1-.18-.094-.18-.092-.181-.09-.182-.089-.183-.087-.184-.085-.184-.083-.185-.082-.186-.08-.187-.078-.188-.076-.194-.077-.183-.07-.19-.071-.19-.069-.191-.068-.191-.066-.192-.064-.193-.062-.193-.06-.194-.059-.194-.057-.195-.055-.195-.053-.2-.051-.2-.05-.2-.047-.2-.046-.2-.044-.2-.042-.2-.04-.2-.038-.2-.037-.2-.035-.2-.033-.2-.031-.2-.029-.2-.027-.2-.026-.2-.024-.2-.022-.2-.02-.2-.018-.2-.016-.2-.014-.2-.013-.2-.011-.2-.009-.2-.007-.2-.005H29.6l.063 4.969H30.362l.147.006.147.008.147.009.147.01.147.012.147.013.147.014.147.016.147.017.146.018.146.02.146.021.146.022.146.024.146.025.146.027.146.028.145.029.145.031.145.032.145.033.144.035.144.036.144.037.144.039.143.04.143.041.142.043.142.044.142.046.141.047.141.048.141.05.14.051.14.052.139.054.139.055.138.056.138.058.137.059.137.06.136.061.136.063.135.064.134.065.134.067.133.068.132.069.132.07.131.072.131.073.13.074.129.076.128.077.127.089.127.079.126.08.125.082.124.083.124.084.123.085.122.086.121.088.12.089.119.09.118.091.117.092.117.093.116.095.115.1.114.1.113.1.112.1.111.1.11.1.109.1.108.1.107.1.105.106.1.107.1.108.1.109.1.11.1.111.1.112.1.113.1.114.1.115.094.116.093.117.091.118.09.119.089.119.088.12.086.121.085.122.084.123.083.124.081.125.08.126.079.126.077.127.076.128.075.129.073.13.072.13.07.131.069.132.068.133.066.133.065.134.063.135.062.135.061.136.059.137.058.137.056.138.055.139.053.139.052.14.05.14.049.141.047.141.046.142.044.143.043.143.041.144.039.144.038.145.036.145.035.145.033.146.032.146.03.147.028.147.027.147.025.148.023.148.022.148.02.149.019.149.017.149.015.149.014.15.012.15.01.15.009.15.007.151.005.151v.905l-.006.152-.008.152-.01.152-.011.152-.013.152-.015.152-.016.152-.018.152-.02.152-.021.151-.023.151-.025.151-.026.151-.028.151-.03.151-.032.151-.033.151-.035.15-.037.15-.038.15-.04.15-.042.15-.043.149-.045.149-.047.148-.048.148-.05.148-.052.148-.053.147-.064.143-.057.146-.058.146-.06.145-.062.145-.063.145-.065.144-.067.144-.068.143-.07.143-.072.142-.073.141-.075.141-.076.14-.078.14-.079.139-.081.138-.083.138-.084.137-.086.136-.087.136-.089.135-.09.134-.092.134-.094.133-.1.132-.1.131-.1.131-.1.13-.1.129-.1.128-.1.127-.106.126-.107.125-.109.125-.11.124-.111.123-.113.122-.114.121-.116.12-.117.119-.119.118-.12.117-.121.116-.123.115-.124.114-.125.113-.127.112-.128.11-.129.109-.131.108-.132.107-.133.106-.134.1-.136.1-.137.1-.138.1-.139.1-.14.1-.142.1-.143.1-.144.1-.145.094-.146.093-.148.091-.148.09-.15.089-.151.087-.152.086-.153.085-.154.083-.155.082-.156.081-.157.079-.158.078-.159.077-.16.075-.161.074-.162.072-.163.071-.163.069-.164.068-.165.067-.166.065-.167.064-.163.064-.168.061-.169.059-.17.058-.171.056-.171.054-.172.053-.173.051-.173.05-.174.051-.175.047-.175.045-.176.044-.177.042-.177.04-.178.039-.178.037-.179.036-.179.034-.18.032-.18.031-.181.029-.181.027-.182.026-.182.024-.183.022-.183.021-.183.019-.183.018-.184.016-.184.014-.184.012-.185.011-.185.009-.185.007-.185.006H26.64l-.186-.006-.186-.008-.186-.01-.182-.014-.186-.013-.186-.015-.186-.017-.186-.018-.186-.02-.186-.022-.186-.023-.186-.025-.185-.027-.185-.028-.185-.03-.185-.032-.185-.034-.184-.035-.184-.037-.184-.039-.183-.041-.183-.042-.183-.044-.183-.046-.182-.047-.182-.049-.181-.051-.181-.052-.18-.054-.18-.056-.179-.057-.179-.059-.178-.061-.178-.063-.177-.064-.177-.066-.176-.068-.175-.069-.175-.071-.174-.073-.173-.074-.176-.075-.172-.077-.171-.079-.17-.081-.169-.082-.169-.084-.168-.085-.167-.087-.166-.089-.165-.09-.164-.092-.164-.093-.163-.095-.162-.1-.161-.1-.16-.1-.159-.1-.158-.1-.157-.1-.156-.106-.154-.107-.153-.106-.152-.11-.151-.111-.15-.113-.149-.114-.148-.116-.147-.117-.145-.119-.144-.12-.143-.121-.142-.123-.14-.124-.139-.126-.138-.127-.136-.128-.135-.13-.134-.131-.132-.132-.131-.133-.13-.135-.128-.136-.127-.137-.125-.138-.124-.14-.123-.141-.121-.142-.119-.143-.118-.145-.116-.146-.115-.147-.113-.148-.112-.149-.11-.15-.109-.151-.107-.152-.105-.154-.1-.155-.1-.156-.1-.157-.1-.158-.1-.159-.1-.16-.094-.161-.092-.161-.09-.162-.089-.163-.087-.164-.085-.165-.083-.166-.081-.167-.08-.168-.078-.169-.076-.17-.074-.17-.072-.171-.071-.172-.069-.173-.067-.173-.065-.174L9 32.381l-.061-.175-.059-.176-.057-.177-.056-.177-.054-.178-.052-.178-.05-.179-.048-.18-.046-.18-.044-.181-.042-.181-.04-.182-.038-.182-.036-.183-.034-.183-.032-.183-.03-.184-.028-.184-.026-.185-.024-.185-.022-.185L8.1 28.4l-.018-.186-.016-.186-.014-.186-.012-.187-.01-.187-.008-.187-.006-.187v-.938l.007-.188.009-.188.011-.188.013-.188.015-.188.017-.188.019-.188.021-.188.023-.188.026-.188.028-.187.03-.187.032-.187.034-.187.036-.187.038-.187.04-.186.042-.186.044-.186.046-.185.048-.185.05-.185.053-.184.055-.184.057-.184.059-.183.061-.183.07-.184.065-.182.067-.181.068-.176.071-.18.073-.18.075-.179.077-.179.079-.178.081-.177.083-.177.085-.176.087-.175.089-.179.091-.174.093-.173.095-.173.1-.172.1-.171.1-.17.1-.169.1-.168.107-.167.114-.168.11-.166.112-.165.114-.164.116-.163.118-.162.12-.161.121-.16.123-.159.125-.158.127-.157.129-.156.131-.155.132-.154.134-.152.136-.151.138-.15.139-.149.141-.148.143-.147.144-.145.146-.144.148-.143.153-.139.151-.14.153-.139.154-.138.156-.136.157-.135.159-.134.161-.132.162-.131.164-.129.165-.128.167-.126.168-.125.17-.123.171-.122.172-.121.174-.119.175-.118.177-.116.178-.114.179-.113.181-.111.182-.11.183-.108.185-.106.186-.1.187-.1.188-.1.19-.1.191-.1.192-.1.193-.095.194-.093.2-.091.2-.09.2-.088.2-.086.2-.084.2-.082.2-.081.2-.079.2-.077.2-.075.206-.073.207-.072.208-.07.208-.068.209-.066.21-.064.211-.062.212-.06.212-.058.213-.056.214-.055.215-.053.215-.051.216-.049.217-.047.217-.045.218-.043.218-.041.219-.039.22-.037.22-.035.221-.033.221-.031.222-.029.222-.027Zm.094 7.37-.064-5.023-.182.024-.2.027-.2.029-.195.031-.195.033-.194.034-.193.036-.193.038-.192.04-.192.041-.191.043-.19.045-.19.047-.183.047-.195.052-.188.052-.187.053-.186.055-.186.057-.185.058-.184.06-.183.061-.183.063-.182.065-.174.062-.18.068-.18.07-.178.071-.177.073-.176.074-.176.076-.175.078-.173.079-.173.081-.171.082-.171.084-.169.085-.169.087-.167.088-.166.09-.165.091-.164.092-.163.094-.162.1-.161.1-.159.1-.158.1-.157.1-.156.1-.154.1-.154.105-.152.106-.151.108-.149.109-.148.11-.147.111-.146.113-.144.114-.143.115-.142.117-.14.118-.139.119-.137.12-.136.121-.134.122-.133.123-.132.125-.13.126-.129.127-.127.128-.126.129-.124.13-.123.131-.121.132-.12.133-.118.134-.116.135-.115.136-.113.137-.112.138-.11.139-.108.14-.107.141-.105.141-.1.142-.1.143-.1.144-.1.145-.1.146-.1.147-.095.145-.092.148-.09.149-.088.149-.087.15-.085.151-.083.151-.082.152-.08.153-.078.153-.076.154-.075.155-.073.155-.071.156-.069.156-.071.16-.066.157-.064.158-.062.158-.061.159-.059.159-.057.16-.055.16-.053.16-.051.161-.05.161-.048.161-.046.162-.044.162-.042.162-.042.16-.039.163-.037.163-.035.163-.033.163-.032.164-.03.164-.028.164-.026.164-.024.164-.022.164-.021.164-.019.164-.017.165-.015.165-.013.164-.011.165-.01.165-.008.164-.006.164V27.2l.007.164.008.164.01.163.012.163.014.163.016.162.017.162.019.162.021.162.023.161.024.161.026.161.028.16.03.16.031.16.033.159.035.159.037.158.038.158.04.157.042.157.043.156.045.156.047.155.049.155.05.154.052.154.053.153.055.152.057.152.058.151.06.151.062.15.063.149.065.148.066.148.068.147.07.146.071.146.073.145.074.144.076.143.077.142.079.142.08.141.082.14.083.139.085.138.086.137.088.136.089.136.09.135.092.134.093.133.094.132.1.131.1.13.1.129.1.128.1.127.1.126.1.125.105.124.107.123.108.122.109.121.11.119.112.118.113.117.114.116.115.115.116.114.117.113.119.111.12.11.121.109.122.108.123.107.124.106.125.1.126.1.127.1.128.1.129.1.13.1.131.1.132.1.133.094.134.093.135.092.136.09.137.089.138.088.139.086.139.085.14.084.141.082.142.081.142.08.143.078.144.077.145.075.145.074.146.073.147.071.147.07.148.069.149.067.149.066.15.064.151.063.151.061.152.06.152.058.153.057.153.056.154.054.154.053.155.051.155.05.156.048.156.047.156.045.157.044.157.042.157.041.158.039.158.038.158.036.159.035.159.034.159.032.159.031.159.029.16.028.16.026.16.025.16.023.16.022.16.02.16.019.16.017.16.016.161.014.161.013.161.011.161.01.16.008.16.007.161.005h1.12l.16-.006.159-.008.159-.009.159-.011.159-.012.158-.014.158-.015.158-.017.157-.018.157-.019.157-.021.156-.022.156-.024.155-.025.157-.04.155-.028.154-.029.154-.031.153-.032.153-.033.152-.035.152-.036.151-.037.151-.039.15-.04.15-.041.149-.043.148-.044.148-.046.147-.047.147-.048.146-.049.145-.051.144-.052.144-.053.143-.055.142-.056.142-.057.141-.058.14-.06.139-.061.139-.062.137-.063.137-.065.136-.066.135-.067.134-.068.134-.069.133-.07.132-.071.131-.073.13-.074.129-.075.128-.076.127-.077.126-.078.125-.079.124-.08.123-.081.122-.083.121-.083.12-.085.119-.086.118-.081.117-.088.116-.089.114-.089.114-.091.113-.091.111-.092.111-.094.109-.094.108-.1.107-.1.106-.1.1-.1.1-.1.1-.1.1-.1.1-.1.1-.1.1-.1.1-.1.095-.1.094-.105.093-.106.091-.107.09-.108.089-.108.088-.109.086-.11.085-.11.084-.111.082-.112.081-.112.08-.113.078-.113.077-.114.076-.115.074-.115.073-.116.072-.117.07-.117.069-.118.068-.118.066-.119.065-.12.063-.119.062-.121.061-.12.06-.122.058-.121.057-.122.055-.122.054-.123.052-.123.051-.124.049-.124.048-.124.047-.125.045-.125.044-.125.043-.126.041-.126.04-.126.038-.126.037-.126.043-.129.034-.127.032-.127.031-.128.03-.127.028-.128.027-.128.025-.128.024-.128.022-.128.021-.128.02-.128.018-.128.017-.128.015-.129.014-.128.013-.129.011-.128.009-.128.008-.128.007-.128.005-.128v-.895L42.4 28.4l-.007-.127-.009-.127-.01-.127-.011-.126-.013-.126-.014-.126-.016-.126-.017-.125-.018-.125-.02-.125-.021-.125-.022-.124-.024-.124-.025-.123-.027-.124-.028-.123-.029-.122-.031-.122-.032-.122-.033-.121-.035-.121-.036-.12-.037-.12-.038-.119-.04-.119-.041-.119-.042-.118-.043-.118-.045-.117-.046-.116-.047-.116-.048-.115-.05-.115-.051-.115-.052-.113-.053-.113-.054-.112-.056-.112-.057-.112-.058-.111-.059-.11-.061-.11-.061-.109-.063-.108-.064-.108-.065-.106-.066-.106-.067-.105-.068-.1-.069-.1-.071-.1-.071-.1-.073-.1-.073-.1-.075-.1-.076-.1-.076-.1-.078-.1-.078-.1-.08-.1-.08-.1-.082-.095-.083-.093-.084-.093-.084-.092-.085-.091-.086-.09-.086-.091-.088-.088-.089-.087-.09-.087-.09-.085-.092-.085-.092-.084-.093-.083-.094-.082-.095-.081-.1-.08-.1-.079-.1-.078-.1-.077-.1-.076-.1-.075-.1-.074-.1-.073-.1-.072-.1-.071-.1-.07-.1-.069-.1-.068-.105-.067-.105-.066-.106-.065-.107-.064-.107-.063-.108-.062-.109-.061-.109-.06-.11-.059-.11-.057-.111-.056-.111-.056-.112-.054-.112-.053-.113-.052-.113-.051-.113-.05-.114-.049-.115-.048-.114-.047-.115-.046-.116-.045-.116-.043-.116-.042-.117-.041-.117-.04-.117-.039-.118-.038-.118-.037-.118-.035-.118-.034-.118-.033-.119-.032-.119-.031-.119-.03-.119-.029-.12-.028-.12-.027-.12-.025-.12-.024-.12-.023-.121-.022-.12-.021-.121-.02-.121-.019-.121-.018-.12-.016-.121-.015-.121-.014-.121-.013-.121-.012-.121-.011-.121-.01-.121-.005-.121-.007-.121-.006-.12-.005H29.699l.062 4.908h.523l.07.006.07.006.07.007.07.008.07.008.07.009.07.01.07.01.07.011.07.012.07.012.07.013.07.014.07.014.07.015.07.016.07.017.07.017.069.018.069.019.069.019.069.02.069.021.069.021.069.022.069.023.068.024.068.024.068.025.068.026.068.026.068.027.067.028.067.028.067.029.067.03.067.03.066.031.066.032.066.032.066.033.065.034.065.034.065.035.064.036.064.037.064.037.063.038.063.038.063.039.062.04.062.04.062.041.061.042.061.042.061.043.06.044.06.044.059.045.059.046.059.046.058.047.058.047.057.048.057.049.056.049.056.05.055.051.055.051.054.052.054.052.053.053.042.067.052.054.052.055.051.055.05.056.05.056.049.057.049.057.048.058.048.059.047.059.046.06.046.06.045.061.045.061.044.062.043.062.043.063.042.063.041.064.041.064.04.065.039.065.039.066.038.066.037.067.037.067.036.067.035.068.034.068.034.069.033.069.032.07.032.07.031.07.03.071.029.071.029.071.028.072.027.072.026.073.025.073.025.073.024.074.023.074.022.074.021.074.021.075.02.075.019.076.018.076.017.076.016.076.015.076.015.077.014.077.013.077.012.078.011.078.01.078.01.078.009.078.008.079.007.079.006.079.005.079V29.45l-.006.08-.007.08-.008.081-.008.081-.009.081-.01.081-.011.081-.012.081-.013.081-.014.081-.015.081-.016.081-.017.081-.018.08-.019.08-.02.08-.02.08-.021.08-.022.08-.023.08-.024.08-.025.08-.026.08-.027.08-.028.079-.029.079-.03.079-.031.079-.032.079-.032.078-.033.078-.034.078-.035.078-.036.078-.037.077-.038.077-.039.077-.04.077-.041.076-.042.076L36 32.7l-.044.075-.044.075-.045.075-.049.075-.047.074-.048.074-.049.074-.05.073-.051.073-.052.072-.052.072-.053.072-.054.071-.055.071-.056.07-.057.07-.058.069-.059.065-.059.069-.06.068-.061.068-.062.067-.063.067-.064.066-.064.066-.065.065-.066.064-.067.064-.068.063-.068.063-.069.062-.07.062-.071.061-.072.061-.072.06-.073.059-.074.059-.075.058-.075.058-.076.057-.077.056-.078.056-.078.055-.079.054-.08.054-.08.053-.081.052-.082.051-.082.051-.083.05-.084.05-.084.049-.085.048-.086.047-.086.047-.087.046-.088.045-.088.044-.089.043-.089.043-.09.042-.09.041-.091.04-.092.04-.092.039-.093.038-.093.037-.094.036-.094.035-.095.035-.1.034-.1.033-.1.032-.1.031-.1.03-.1.03-.1.028-.1.028-.1.027-.1.026-.1.025-.1.024-.1.023-.1.022-.1.021-.1.02-.1.02-.1.019-.1.018-.1.017-.1.016-.1.015-.1.014-.1.013-.1.012-.1.011-.1.01-.105.009-.105.008-.106.007-.106.006-.106.005h-1.093l-.108-.006-.108-.007-.108-.008-.108-.009-.108-.01-.108-.011-.108-.012-.108-.013-.108-.014-.107-.015-.108-.016-.107-.017-.107-.018-.107-.019-.107-.02-.107-.021-.107-.022-.107-.023-.107-.024-.107-.025-.106-.026-.106-.027-.106-.028-.106-.029-.098-.027-.105-.031-.105-.032-.1-.033-.1-.034-.1-.035-.1-.036-.1-.037-.1-.038-.1-.039-.1-.04-.1-.041-.1-.042-.1-.043-.1-.044-.1-.045-.1-.046-.1-.047-.1-.048-.1-.049-.1-.05-.1-.051-.1-.052-.1-.053-.1-.054-.1-.055-.1-.056-.1-.057-.1-.058-.095-.059-.094-.06-.093-.06-.093-.061-.092-.062-.092-.063-.091-.064-.09-.065-.09-.066-.089-.067-.089-.068-.088-.069-.087-.07-.107-.071-.086-.071-.085-.072-.084-.073-.084-.074-.083-.075-.082-.076-.081-.076-.081-.077-.08-.078-.079-.079L19 33.97l-.077-.08-.077-.081-.076-.082-.075-.083-.074-.084-.073-.084-.072-.085-.072-.086-.071-.087-.07-.087-.069-.088-.068-.089-.067-.09-.066-.09-.065-.091-.064-.092-.064-.091-.06-.1-.061-.094-.06-.095-.059-.1-.058-.1-.057-.1-.056-.1-.055-.1-.054-.1-.053-.1-.052-.1-.051-.1-.05-.1-.049-.1-.048-.1-.047-.1-.046-.1-.045-.1-.044-.1-.042-.1-.041-.1-.04-.105-.039-.106-.038-.106-.037-.107-.036-.107-.034-.108-.033-.108-.032-.108-.031-.109-.03-.109-.028-.11-.027-.11-.026-.11-.025-.111-.024-.111-.023-.111-.021-.112-.02-.112-.019-.112-.018-.113-.016-.113L16.1 28l-.014-.113-.013-.114-.011-.114-.01-.114-.009-.114-.008-.114-.006-.115-.005-.115V26.28l.005-.116.006-.116.008-.116.009-.116.01-.116.012-.116.013-.116.014-.116.015-.116.017-.116.018-.116.019-.116.021-.116.022-.116.023-.115.025-.115.026-.115.027-.115.028-.115.03-.115.031-.115.032-.114.034-.114.035-.114.036-.114.038-.113.039-.113.04-.113.042-.113.043-.113.044-.112.045-.112.047-.112.048-.111.049-.111.05-.111.052-.11.053-.11.054-.109.056-.109.057-.109.058-.108.059-.108.061-.107.062-.107.063-.106.064-.106.066-.105.067-.1.068-.1.069-.1.071-.1.072-.1.073-.1.074-.1.075-.1.076-.1.078-.1.079-.1.08-.1.081-.1.082-.1.084-.1.085-.1.086-.1.087-.095.088-.094.089-.093.09-.092.091-.091.092-.091.094-.09.095-.089.1-.088.1-.088.1-.087.1-.086.1-.085.1-.084.1-.083.1-.082.1-.082.1-.081.106-.08.107-.079.108-.078.109-.077.11-.076.111-.075.112-.074.113-.073.113-.072.114-.071.115-.07.116-.069.117-.068.118-.067.119-.066.119-.065.12-.064.117-.062.122-.062.123-.061.124-.06.124-.059.129-.058.126-.057.127-.056.127-.054.128-.053.129-.052.13-.051.13-.05.131-.049.131-.048.132-.046.133-.045.133-.044.134-.043.134-.042.135-.04.136-.039.136-.038.137-.037.137-.035.138-.034.138-.033.139-.032.139-.031.14-.029.14-.028.138-.034.141-.025Zm1.732 9.438-1.607.358-.094-7.422-.076.016-.114.025-.114.026-.113.027-.113.028-.112.029-.112.03-.111.031-.111.032-.11.033-.11.034-.11.035-.109.036-.109.037-.108.038-.107.039-.107.04-.106.041-.106.042-.1.042-.1.044-.1.044-.1.045-.1.046-.1.047-.1.048-.1.049-.1.05-.1.051-.1.051-.1.052-.1.053-.1.054-.1.055-.1.056-.095.056-.094.057-.093.058-.092.059-.092.06-.091.06-.09.061-.089.062-.088.063-.088.063-.087.064-.086.065-.085.066-.084.066-.083.067-.083.068-.082.068-.081.069-.08.07-.079.07-.078.071-.078.072-.077.072-.076.073-.075.073-.074.074-.073.074-.072.075-.071.076-.07.076-.069.077-.068.077-.068.078-.066.078-.066.079-.065.08-.064.08-.063.08-.062.081-.061.082-.06.082-.059.083-.058.083-.057.083-.056.084-.058.084-.054.085-.053.085-.052.085-.051.086-.05.086-.049.086-.048.087-.047.087-.046.087-.045.088-.044.088-.043.088-.042.089-.041.089-.039.089-.038.089-.037.09-.037.09-.035.09-.034.09-.033.09-.032.091-.031.091-.03.091-.029.091-.028.091-.027.092-.026.092-.025.092-.024.092-.023.092-.022.092-.021.092-.02.092-.019.092-.018.092-.016.092-.015.092-.015.093-.013.092-.012.093-.011.092-.01.092-.009.093L18.6 26l-.007.092-.006.092-.005.092v.825l.005.091.006.091.007.091.008.09.009.09.01.09.011.09.012.09.013.089.014.089.015.089.016.089.017.089.018.088.019.088.02.087.021.087.022.087.023.087.023.086.025.086.025.085.026.085.027.085.026.08.029.084.03.084.031.084.032.083.032.082.033.082.034.082.035.081.036.081.037.08.038.08.038.08.039.079.04.079.041.078.042.078.042.077.043.077.044.076.045.076.046.075.046.075.047.074.048.074.049.073.049.072.05.072.051.071.052.071.052.07.053.07.054.069.054.068.055.068.056.067.056.066.057.066.058.065.058.064.059.064.06.063.06.063.061.062.061.061.062.061.063.06.063.059.064.059.064.058.065.057.066.057.066.056.067.055.067.055.068.054.068.053.069.053.069.052.07.051.07.05.071.05.071.049.071.048.072.047.072.047.073.046.073.045.073.044.074.044.074.043.074.042.075.042.075.041.075.04.076.039.077.039.077.038.077.037.077.036.078.035.078.035.078.034.078.033.078.032.079.032.079.031.079.03.079.029.08.028.08.028.08.027.08.026.08.025.08.025.081.024.081.023.081.022.081.021.081.021.081.02.081.019.081.018.081.017.082.017.082.016.082.015.082.014.082.014.082.013.082.012.082.011.082.01.082.01.082.009.082.008.082.007.082.007.082.006.081.005h1.049l.079-.005.08-.006.079-.007.079-.008.079-.008.078-.009.079-.01.08-.009.078-.011.078-.012.077-.013.077-.013.077-.014.077-.015.076-.015.076-.016.076-.017.075-.017.075-.018.075-.019.074-.02.074-.02.074-.021.073-.021.073-.022.073-.023.072-.023.072-.024.071-.025.071-.025.071-.026.07-.026.07-.027.069-.028.069-.028.068-.029.068-.029.068-.03.067-.031.067-.031.066-.032.066-.032.065-.033.063-.033.064-.034.064-.034.063-.035.063-.035.062-.036.062-.037.061-.037.061-.033.06-.038.06-.039.059-.039.059-.039.058-.04.058-.04.057-.041.056-.041.056-.042.055-.042.055-.043.054-.043.054-.044.053-.044.052-.044.052-.045.051-.045.051-.046.05-.046.049-.046.054-.053.048-.047.048-.047.047-.048.046-.048.046-.049.045-.049.044-.049.044-.05.043-.05.043-.05.042-.05.041-.051.041-.051.04-.051.039-.052.039-.052.038-.052.037-.053.037-.053L33.5 32l.035-.053.035-.053.034-.054.033-.054.033-.054.032-.054.031-.054.031-.054.03-.055.029-.055.029-.055.028-.055.027-.055.027-.056.026-.056.025-.056.025-.056.024-.056.023-.056.023-.057.022-.056.021-.057.021-.057.02-.056.019-.057.019-.057.018-.057.017-.056.017-.057.016-.056.015-.057.014-.057.014-.057.013-.057.013-.057.012-.057.011-.057.01-.057.01-.057.009-.057.009-.057.008-.057.007-.057.007-.057.006-.057.005-.057V28.53l-.005-.055-.006-.054-.007-.054-.007-.055-.008-.054-.009-.054-.009-.053-.01-.054-.01-.053-.011-.053-.011-.053-.012-.053-.013-.052-.013-.052-.014-.052-.014-.051-.015-.052-.015-.051-.016-.051-.016-.05-.017-.05-.017-.05-.018-.05-.019-.05-.019-.049-.02-.049-.02-.049-.02-.048-.021-.048-.021-.047-.022-.048-.022-.047-.023-.047-.023-.047-.024-.046-.024-.046-.025-.045-.025-.045-.026-.045-.026-.044-.027-.044-.027-.044-.027-.043-.028-.043-.028-.043-.029-.042-.029-.042-.03-.041-.03-.041-.03-.041-.031-.04-.031-.04-.032-.04-.032-.039-.032-.039-.033-.038-.033-.038-.033-.038-.034-.037-.034-.037-.034-.036-.035-.036-.035-.035-.035-.035-.036-.035-.036-.034-.036-.034-.036-.033-.037-.033-.037-.033-.038-.032-.037-.032-.038-.031-.038-.031-.038-.03-.039-.03-.039-.03-.039-.029-.039-.029-.04-.028-.04-.028-.04-.027-.04-.027-.04-.026-.041-.026-.041-.025-.041-.025-.041-.025-.041-.024-.042-.024-.042-.023-.042-.023-.042-.022-.042-.022-.042-.021-.042-.021-.043-.02-.042-.02-.043-.02-.043-.019-.043-.018-.043-.018-.043-.018-.043-.017-.043-.017-.044-.016-.043-.016-.043-.015-.044-.015-.043-.014-.044-.014-.044-.014-.043-.013-.044-.013-.044-.012-.044-.012-.044-.011-.044-.011-.044-.01-.044-.01-.044-.009-.044-.009-.044-.009-.044-.008-.044-.008-.043-.007-.044-.007-.043-.006-.044-.006-.043-.006-.044-.005H29.197l-.04.005-.04.006-.039.006-.039.006-.039.016-.039.007-.039.007-.039.008Z" data-name="Path 6733"/></g></svg>