<svg xmlns="http://www.w3.org/2000/svg" width="217" height="55" viewBox="0 0 217 55"><g fill="#001034" opacity=".6"><path d="M97.365 36.389h5.212c.3.867 1.188 1.6 2.968 1.6 2.278 0 3.235-1.157 3.235-3.148v-1.636h-.131a5.451 5.451 0 0 1-4.323 1.894 7.127 7.127 0 0 1-7.15-5.946c-.48 4.4-3.908 7.625-8.948 7.625-5.413 0-9.042-3.757-9.042-8.7s3.629-8.7 9.042-8.7c4.73 0 8.041 2.838 8.827 6.828.408-4.229 3.177-7.125 7.041-7.125a5.462 5.462 0 0 1 4.752 2.247h.066v-1.766h5.148v14.837a6.952 6.952 0 0 1-2.245 5.459 9.4 9.4 0 0 1-6.2 1.83c-4.657 0-7.726-1.864-8.252-5.299ZM84.629 28.08c0 2.987 1.22 4.978 3.563 4.978s3.6-1.991 3.6-4.978-1.253-5.011-3.6-5.011-3.562 2.025-3.562 5.012Zm17.619-.941c0 2.472 1.32 4.08 3.332 4.08 2.342 0 3.431-1.8 3.431-4.111 0-2.216-1.188-4.08-3.431-4.08-2.011.001-3.331 1.606-3.331 4.112Zm38.1 14.306v-21.87h5.146v1.991h.1a6.2 6.2 0 0 1 5.115-2.472c4.486 0 7.225 3.757 7.225 8.7a12.111 12.111 0 0 1-.389 3.143h5.059c.2 1.638 1.319 2.442 3.1 2.442 1.617 0 2.64-.578 2.64-1.638 0-1.479-2.045-1.638-4.289-2.025-2.938-.481-6.072-1.251-6.072-5.106 0-3.468 3.3-5.267 7.292-5.267 3.508 0 5.827 1.088 6.919 2.946V19.81h5.346v9.7c0 1.8.827 2.792 2.54 2.792 1.849 0 2.969-1.349 2.969-3.307v-9.186h5.378v16.444h-5.146v-2.025h-.1a5.817 5.817 0 0 1-5.049 2.506c-2.636 0-4.426-1.135-5.3-3.005-1.139 2.017-3.794 3.053-7.089 3.053-4.918 0-8.013-2.188-8.213-5.777a6.969 6.969 0 0 1-6.949 5.523 5.678 5.678 0 0 1-4.784-2.214h-.068v7.128Zm5.215-13.455c0 2.665 1.321 4.495 3.629 4.495 2.046 0 3.3-1.7 3.3-4.495 0-2.825-1.089-4.689-3.4-4.689-2.346.001-3.532 2.023-3.532 4.69Zm17.34-3.8c0 1.157 1.914 1.316 4.057 1.7 1.873.3 3.953.709 5.236 2.02v-3.3h-4.245c-.2-1.477-1.22-1.927-2.707-1.927-1.323.002-2.344.484-2.344 1.513Zm-48.35 3.885c0-4.947 3.63-8.7 9.042-8.7 5.443 0 9.006 3.757 9.006 8.7s-3.562 8.7-9.006 8.7c-5.415.008-9.045-3.749-9.045-8.694Zm5.444 0c0 2.987 1.22 4.978 3.563 4.978s3.6-1.991 3.6-4.978-1.255-5.011-3.6-5.011-3.566 2.03-3.566 5.017Zm13.514 8.455V20.086h5.378V36.53Zm-70.48 0V13.567h5.841v18.146h10.592v4.817Zm148.592-.244v-9.762c0-1.766-.758-2.795-2.375-2.795-1.718 0-2.675 1.382-2.675 3.34v9.216h-5.377v-9.762c0-1.766-.757-2.795-2.374-2.795-1.684 0-2.674 1.382-2.674 3.34v9.216h-5.378V19.852h5.149v2.344h.1a5.667 5.667 0 0 1 5.116-2.825 5.069 5.069 0 0 1 4.75 2.89h.066a6.048 6.048 0 0 1 5.312-2.89c3.829 0 5.743 2.536 5.743 6.229v10.693Zm-78.112-18.48v-4.239h5.378v4.239Z" data-name="Path 6813"/><path d="m20.843 53.47 4.033-15.605a10.984 10.984 0 0 0 3.039.424 11.071 11.071 0 0 0 2.845-.37L26.345 55Zm10.123-15.608a11.172 11.172 0 0 0 3.8-1.944l-.619-.642a11.938 11.938 0 0 0 2.834-5.416l2.075 2.152a12.339 12.339 0 0 0 .255-2.5 11.609 11.609 0 0 0-11.393-11.816 11.609 11.609 0 0 0-11.393 11.816q0 .38.022.754l.278-.078a11.946 11.946 0 0 0 2.4 4.923l.458-.474a11.328 11.328 0 0 0 5 3.169l-12.07 12.518-4.027-4.177 9.944-10.316-15.561 4.325-1.474-5.707L13.22 31.19.002 27.517l1.475-5.707 15.389 4.277L4.508 13.271l4.031-4.177 11.264 11.683-4.52-17.5 5.5-1.529 4.185 16.2L29.606-.001l5.5 1.529-4.129 15.98L43.164 4.869l4.027 4.177-11.264 11.685 16.88-4.691 1.472 5.706-15.389 4.277 16.88 4.691-1.474 5.706-15.017-4.173 9.96 10.332-4.028 4.177-8.267-8.575 3.548 13.742-5.5 1.529Z" data-name="Path 6812"/></g></svg>