<svg xmlns="http://www.w3.org/2000/svg" width="254" height="60" viewBox="0 0 254 60"><g fill="#001034" opacity=".6"><path d="M116.347 40.807h5.7c.324.975 1.3 1.8 3.248 1.8 2.492 0 3.539-1.3 3.539-3.537v-1.842h-.144a5.9 5.9 0 0 1-4.729 2.131c-4.154 0-8.017-3.1-8.017-8.774 0-5.416 3.176-9.241 7.764-9.241a5.933 5.933 0 0 1 5.2 2.528h.071v-1.986h5.633v16.679a7.925 7.925 0 0 1-2.457 6.138c-1.621 1.445-4.043 2.059-6.787 2.059-5.088.002-8.444-2.093-9.021-5.955Zm5.342-10.4c0 2.779 1.445 4.585 3.646 4.585 2.565 0 3.757-2.023 3.757-4.621 0-2.492-1.3-4.587-3.757-4.587-2.201.002-3.647 1.808-3.647 4.626Zm44.557 16.109V21.929h5.632v2.24h.109a6.718 6.718 0 0 1 5.595-2.781c4.91 0 7.905 4.226 7.905 9.786 0 5.993-3.212 9.819-8.049 9.819a6.148 6.148 0 0 1-5.235-2.492h-.072v8.016Zm5.705-15.126c0 3 1.44 5.054 3.97 5.054 2.239 0 3.609-1.914 3.609-5.054 0-3.178-1.188-5.274-3.717-5.274-2.563.003-3.863 2.279-3.863 5.277Zm-14.146 10.511V23.416h5.886v18.485Zm-81.269 0V16.089h6.39v20.4h11.59v5.415Zm109.545-6.757h5.56c.214 1.842 1.442 2.745 3.394 2.745 1.77 0 2.89-.65 2.89-1.842 0-1.662-2.24-1.842-4.7-2.273-3.212-.542-6.644-1.409-6.644-5.743 0-3.9 3.612-5.921 7.98-5.921 5.235 0 8.052 2.276 8.341 5.921h-5.416c-.216-1.659-1.336-2.165-2.962-2.165-1.444 0-2.562.542-2.562 1.7 0 1.3 2.092 1.478 4.439 1.912 3.249.542 7.075 1.373 7.075 6.1 0 4.043-3.573 6.138-8.411 6.138-5.412.002-8.804-2.488-8.985-6.569Zm-49.742-3.215a9.471 9.471 0 0 1 9.892-9.786 9.424 9.424 0 0 1 9.858 9.786 9.422 9.422 0 0 1-9.858 9.783 9.469 9.469 0 0 1-9.897-9.78Zm5.957 0c0 3.357 1.337 5.6 3.9 5.6s3.938-2.239 3.938-5.6-1.373-5.632-3.937-5.632-3.902 2.276-3.902 5.635Zm-46.983 0a9.471 9.471 0 0 1 9.892-9.786 9.424 9.424 0 0 1 9.858 9.786 9.422 9.422 0 0 1-9.858 9.783 9.469 9.469 0 0 1-9.894-9.78Zm5.958 0c0 3.357 1.336 5.6 3.9 5.6s3.938-2.239 3.938-5.6-1.372-5.632-3.937-5.632-3.903 2.276-3.903 5.635Zm103.706 2.812V22.61h5.849v10.9c0 2.022.9 3.142 2.781 3.142 2.021 0 3.249-1.517 3.249-3.72V22.607h5.884v18.486h-5.631v-2.276H217a6.315 6.315 0 0 1-5.523 2.817c-4.262.006-6.502-2.775-6.502-6.89Zm43.14 6.46V30.226c0-1.986-.831-3.142-2.6-3.142-1.875 0-2.923 1.553-2.923 3.756v10.361h-5.885V30.226c0-1.986-.831-3.142-2.6-3.142-1.839 0-2.923 1.553-2.923 3.756v10.361h-5.884V22.715h5.631v2.637h.109a6.161 6.161 0 0 1 5.592-3.172 5.533 5.533 0 0 1 5.2 3.251h.072a6.576 6.576 0 0 1 5.813-3.251c4.187 0 6.281 2.854 6.281 7v12.023Zm-90.312-20.349v-4.765h5.886v4.765Z" data-name="Path 6811"/><path fill-rule="evenodd" d="M30.086 60A30 30 0 1 0 0 30a30.043 30.043 0 0 0 30.086 30Zm9.386-46.025c.457-1.618-1.118-2.575-2.556-1.553L16.838 26.684c-1.56 1.108-1.314 3.316.369 3.316h5.287v-.038h10.3l-8.4 2.954-3.7 13.112c-.457 1.618 1.118 2.575 2.556 1.553l20.085-14.265c1.56-1.108 1.314-3.316-.369-3.316h-8.017Z" data-name="Path 6693"/></g></svg>