<svg xmlns="http://www.w3.org/2000/svg" width="216" height="55" viewBox="0 0 216 55"><g fill="#001034" opacity=".6"><path d="M96.721 37.11h4.978c.284.852 1.136 1.578 2.837 1.578 2.173 0 3.089-1.135 3.089-3.089V33.99h-.128a5.142 5.142 0 0 1-4.127 1.862c-3.625 0-7-2.711-7-7.66 0-4.726 2.775-8.066 6.777-8.066a5.168 5.168 0 0 1 4.536 2.2h.064v-1.734h4.916v14.56a6.921 6.921 0 0 1-2.144 5.358 8.813 8.813 0 0 1-5.923 1.8c-4.44.001-7.371-1.827-7.875-5.2Zm4.665-9.076c0 2.427 1.261 4 3.181 4 2.238 0 3.278-1.764 3.278-4.033 0-2.174-1.136-4-3.278-4-1.92-.001-3.181 1.575-3.181 4.033Zm38.517 14.022V20.594h4.915v1.956h.1a5.869 5.869 0 0 1 4.885-2.427c4.285 0 6.9 3.686 6.9 8.539 0 5.233-2.806 8.573-7.028 8.573a5.378 5.378 0 0 1-4.57-2.174h-.062v6.995Zm4.979-13.2c0 2.616 1.261 4.411 3.465 4.411 1.955 0 3.154-1.67 3.154-4.411 0-2.772-1.041-4.6-3.248-4.6-2.236 0-3.371 1.985-3.371 4.6Zm12.2 2.685h4.853c.19 1.609 1.261 2.4 2.962 2.4 1.544 0 2.521-.568 2.521-1.609 0-1.448-1.954-1.606-4.1-1.985-2.806-.473-5.8-1.23-5.8-5.01 0-3.4 3.15-5.169 6.964-5.169 4.57 0 7.028 1.985 7.281 5.169h-4.728c-.189-1.45-1.167-1.892-2.583-1.892-1.261 0-2.238.473-2.238 1.483 0 1.133 1.829 1.292 3.874 1.67 2.84.47 6.179 1.2 6.179 5.324 0 3.529-3.119 5.358-7.342 5.358-4.724-.002-7.686-2.176-7.844-5.738Zm-43.063-2.806a8.268 8.268 0 0 1 8.637-8.539 8.223 8.223 0 0 1 8.6 8.539 8.224 8.224 0 0 1-8.6 8.542 8.268 8.268 0 0 1-8.639-8.541Zm5.2 0c0 2.931 1.164 4.885 3.4 4.885s3.434-1.954 3.434-4.885-1.2-4.915-3.434-4.915-3.399 1.986-3.399 4.916Zm-40.711 0a8.266 8.266 0 0 1 8.635-8.539 8.224 8.224 0 0 1 8.605 8.539 8.225 8.225 0 0 1-8.605 8.542 8.267 8.267 0 0 1-8.634-8.541Zm5.2 0c0 2.931 1.167 4.885 3.4 4.885s3.434-1.954 3.434-4.885-1.2-4.915-3.434-4.915-3.4 1.986-3.4 4.916Zm89.5 2.489V20.636h5.105v9.516c0 1.765.788 2.742 2.426 2.742 1.765 0 2.837-1.323 2.837-3.245v-9.013h5.138v16.135h-4.918v-1.985h-.1a5.511 5.511 0 0 1-4.82 2.458c-3.713.001-5.671-2.426-5.671-6.02Zm-40.544 5.587V20.674h5.138v16.137Zm-70.4 0V14.28h5.578v17.8h10.117v4.726Zm148.6-.033v-9.58c0-1.734-.724-2.741-2.269-2.741-1.639 0-2.553 1.355-2.553 3.276v9.046h-5.137v-9.58c0-1.734-.724-2.741-2.269-2.741-1.609 0-2.553 1.355-2.553 3.276v9.046h-5.137V20.645h4.916v2.3h.095a5.38 5.38 0 0 1 4.884-2.772 4.834 4.834 0 0 1 4.539 2.836h.061a5.744 5.744 0 0 1 5.077-2.836c3.654 0 5.483 2.488 5.483 6.112v10.5Zm-78.2-18.339v-4.158h5.138v4.158Z" data-name="Path 6814"/><path fill-rule="evenodd" d="M11.925 4.947a27.907 27.907 0 0 0-5.364 4.832c6.4-.586 14.528.371 23.967 5.025 10.079 4.97 18.195 5.138 23.843 4.063a27.148 27.148 0 0 0-1.922-4.4c-6.466.673-14.755-.218-24.415-4.981a41.932 41.932 0 0 0-16.109-4.539Zm36.747 4.219A27.988 27.988 0 0 0 27.886 0a28.3 28.3 0 0 0-7.022.879 52.986 52.986 0 0 1 9.663 3.689 40.638 40.638 0 0 0 18.145 4.598Zm6.907 15.072c-6.824 1.329-16.246 1.056-27.545-4.515-10.563-5.208-18.97-5.143-24.639-3.9q-.439.1-.857.2a27.041 27.041 0 0 0-1.76 5q.681-.179 1.407-.339c6.879-1.507 16.6-1.442 28.343 4.35 10.563 5.208 18.97 5.143 24.64 3.9q.291-.064.574-.132.031-.65.031-1.308a27.411 27.411 0 0 0-.195-3.256Zm-.747 10.373c-6.757 1.165-15.906.718-26.8-4.652-10.563-5.208-18.97-5.143-24.639-3.9a28.105 28.105 0 0 0-3.389.966v.474a27.7 27.7 0 0 0 27.886 27.5 27.835 27.835 0 0 0 26.941-20.387Z" data-name="Path 6658"/></g></svg>